<svg xmlns="http://www.w3.org/2000/svg" viewBox="0 0 100 100">
  <defs>
    <linearGradient id="bg" x1="0%" y1="0%" x2="100%" y2="100%">
      <stop offset="0%" style="stop-color:#4ECDC4"/>
      <stop offset="100%" style="stop-color:#3BAEA7"/>
    </linearGradient>
  </defs>
  <rect width="100" height="100" rx="22" fill="url(#bg)"/>
  <!-- Open book -->
  <path d="M25 65 Q25 40 50 35 Q75 40 75 65 L50 60 Z" fill="white" opacity="0.95"/>
  <line x1="50" y1="35" x2="50" y2="60" stroke="#4ECDC4" stroke-width="1.5" opacity="0.4"/>
  <!-- Graduation cap -->
  <polygon points="50,20 35,28 50,36 65,28" fill="#A78BFA"/>
  <rect x="48" y="28" width="4" height="8" fill="#8B5CF6" rx="1"/>
  <line x1="35" y1="28" x2="33" y2="35" stroke="#8B5CF6" stroke-width="2" stroke-linecap="round"/>
  <circle cx="33" cy="36" r="2" fill="#FFE66D"/>
  <!-- Sparkles -->
  <path d="M78 18 L80 22 L82 18 L80 14 Z" fill="#FFE66D"/>
  <path d="M20 22 L21 24 L22 22 L21 20 Z" fill="#FF6B6B"/>
  <circle cx="72" cy="42" r="2" fill="#FF6B6B" opacity="0.8"/>
  <circle cx="28" cy="45" r="1.5" fill="#A78BFA" opacity="0.6"/>
</svg>
